<svg width="41" height="49" viewBox="0 0 41 49" xmlns="http://www.w3.org/2000/svg">
<path d="M0.789307 43.2534L4.28853 36.5831C8.34026 39.3624 14.602 41.4005 20.6796 41.4005C28.5989 41.4005 31.7298 38.9918 31.7298 34.9155C31.7298 24.3542 2.07849 33.4332 2.07849 14.7193C2.07849 6.19619 9.62945 0.637604 21.6005 0.637604C27.6781 0.637604 34.6765 2.30518 38.7282 4.89918L35.0448 11.5695C30.8089 8.79019 26.2047 7.86376 21.6005 7.86376C14.2337 7.86376 10.5503 10.6431 10.5503 14.3488C10.5503 25.4659 40.2016 16.3869 40.2016 34.7302C40.2016 43.2534 32.4665 48.6267 19.9429 48.6267C12.392 48.812 4.65687 46.4033 0.789307 43.2534Z"/>
</svg>
